<svg id="Layer_1" enable-background="new 0 0 512 512" height="512" viewBox="0 0 512 512" width="512" xmlns="http://www.w3.org/2000/svg"><path d="m482.21 361.234.005.005c12.101-29.01 18.787-60.844 18.787-94.241 0-135.311-109.691-245.002-245.002-245.002s-245.002 109.691-245.002 245.002c0 9.731.585 19.323 1.689 28.758l348.663 192.49c13.039-6.22 25.439-13.561 37.082-21.893z" fill="#add841"/><path d="m326.024 47.784h-62.338c.242 1.362.375 2.761.375 4.191 0 13.174-10.718 23.892-23.893 23.892h-104.968c-13.174 0-23.892-10.718-23.892-23.893 0-1.43.133-2.829.375-4.191h-62.337c-20.314 0-36.781 16.467-36.781 36.781v210.123c3.783 33.629 14.386 65.191 30.372 93.29l108.26 100.533c31.773 15.061 67.302 23.49 104.803 23.49 38.1 0 74.167-8.698 106.328-24.214.31-1.922.477-3.891.477-5.9v-397.321c0-20.313-16.468-36.781-36.781-36.781z" fill="#384051"/><path d="m91.386 47.784h-42.04c-20.314 0-36.781 16.467-36.781 36.781v210.123c3.783 33.629 14.386 65.191 30.372 93.29l51.929 48.222v-359.252c-19.187-14.75-3.48-29.164-3.48-29.164z" fill="#2d3243"/><path d="m325.497 76.948h-275.625c-4.498 0-8.144 3.646-8.144 8.144v300.763c25.188 45.311 64.325 81.793 111.615 103.648h172.154c4.498 0 8.144-3.646 8.144-8.144v-396.267c0-4.498-3.646-8.144-8.144-8.144z" fill="#f7f3f1"/><path d="m325.497 76.948h-275.625c-4.498 0-8.144 3.646-8.144 8.144v300.763c25.188 45.311 64.325 81.793 111.615 103.648h172.154c4.498 0 8.144-3.646 8.144-8.144v-396.267c0-4.498-3.646-8.144-8.144-8.144z" fill="#f7f3f1"/><path d="m86.722 85.092c0-4.498 3.646-8.144 8.144-8.144h-44.994c-4.498 0-8.144 3.646-8.144 8.144v300.763c12.026 21.634 27.239 41.248 44.993 58.226v-358.989z" fill="#cde2ff"/><path d="m122.526 153.382h-24.843c-7.129 0-12.961 5.833-12.961 12.962v24.843c0 7.129 5.833 12.962 12.961 12.962h24.843c7.129 0 12.962-5.833 12.962-12.962v-24.843c0-7.129-5.833-12.962-12.962-12.962z" fill="#fff"/><path d="m110.914 194.964c-2.074 0-4.146-.791-5.729-2.372l-14.452-14.452c-3.163-3.165-3.163-8.293 0-11.458 3.164-3.162 8.293-3.162 11.457 0l8.723 8.724 23.177-23.176c3.163-3.163 8.293-3.163 11.456.001 3.163 3.163 3.163 8.293-.001 11.456l-28.905 28.904c-1.579 1.582-3.653 2.373-5.726 2.373z" fill="#61ccf8"/><path d="m284.906 171.874h-106.573c-4.475 0-8.101-3.626-8.101-8.101s3.626-8.101 8.101-8.101h106.572c4.474 0 8.101 3.626 8.101 8.101.001 4.475-3.626 8.101-8.1 8.101z" fill="#fff"/><path d="m252.682 201.859h-74.349c-4.475 0-8.101-3.627-8.101-8.101 0-4.475 3.626-8.101 8.101-8.101h74.349c4.474 0 8.101 3.626 8.101 8.101 0 4.474-3.627 8.101-8.101 8.101z" fill="#fff"/><path d="m122.526 233.568h-24.843c-7.129 0-12.961 5.833-12.961 12.962v24.843c0 7.129 5.833 12.961 12.961 12.961h24.843c7.129 0 12.962-5.833 12.962-12.961v-24.843c0-7.129-5.833-12.962-12.962-12.962z" fill="#fff"/><path d="m110.914 275.15c-2.074 0-4.146-.791-5.729-2.372l-14.452-14.452c-3.163-3.164-3.163-8.293 0-11.457 3.164-3.162 8.293-3.162 11.457 0l8.723 8.724 23.177-23.176c3.163-3.163 8.293-3.162 11.456.001s3.163 8.293-.001 11.456l-28.905 28.904c-1.579 1.581-3.653 2.372-5.726 2.372z" fill="#61ccf8"/><path d="m284.906 252.06h-106.573c-4.475 0-8.101-3.626-8.101-8.101s3.626-8.101 8.101-8.101h106.572c4.474 0 8.101 3.626 8.101 8.101.001 4.475-3.626 8.101-8.1 8.101z" fill="#fff"/><path d="m252.682 282.044h-74.349c-4.475 0-8.101-3.626-8.101-8.101s3.626-8.101 8.101-8.101h74.349c4.474 0 8.101 3.626 8.101 8.101s-3.627 8.101-8.101 8.101z" fill="#fff"/><path d="m122.526 313.755h-24.843c-7.129 0-12.961 5.833-12.961 12.962v24.843c0 7.129 5.833 12.962 12.961 12.962h24.843c7.129 0 12.962-5.833 12.962-12.962v-24.843c0-7.129-5.833-12.962-12.962-12.962z" fill="#cde2ff"/><path d="m205.696 332.247h-27.363c-4.475 0-8.101-3.627-8.101-8.101 0-4.475 3.626-8.101 8.101-8.101h27.363c4.475 0 8.101 3.626 8.101 8.101s-3.626 8.101-8.101 8.101z" fill="#fff"/><path d="m186.613 362.231h-8.279c-4.475 0-8.101-3.626-8.101-8.101s3.626-8.101 8.101-8.101h8.279c4.475 0 8.101 3.627 8.101 8.101s-3.627 8.101-8.101 8.101z" fill="#fff"/><path d="m122.526 393.941h-24.843c-7.129 0-12.961 5.832-12.961 12.961v24.843c0 7.129 5.833 12.962 12.961 12.962h24.843c7.129 0 12.962-5.833 12.962-12.962v-24.843c0-7.128-5.833-12.961-12.962-12.961z" fill="#cde2ff"/><path d="m110.105 351.56v-24.843c0-7.038 5.687-12.801 12.691-12.948-.091-.002-.179-.014-.27-.014h-24.843c-7.129 0-12.962 5.833-12.962 12.962v24.843c0 7.129 5.833 12.962 12.962 12.962h24.843c.091 0 .179-.012.27-.014-7.004-.147-12.691-5.911-12.691-12.948z" fill="#aad1f7"/><path d="m110.105 431.746v-24.843c0-7.038 5.687-12.801 12.691-12.948-.091-.002-.179-.014-.27-.014h-24.843c-7.129 0-12.962 5.832-12.962 12.961v24.843c0 7.129 5.833 12.962 12.962 12.962h24.843c.091 0 .179-.012.27-.014-7.004-.146-12.691-5.909-12.691-12.947z" fill="#aad1f7"/><path d="m186.615 412.433h-8.281c-4.475 0-8.101-3.626-8.101-8.101s3.626-8.101 8.101-8.101h8.281c4.475 0 8.101 3.626 8.101 8.101s-3.627 8.101-8.101 8.101z" fill="#fff"/><path d="m205.696 442.417h-27.363c-4.475 0-8.101-3.626-8.101-8.101s3.626-8.101 8.101-8.101h27.363c4.475 0 8.101 3.626 8.101 8.101s-3.626 8.101-8.101 8.101z" fill="#fff"/><path d="m297.716 361.19h101.306v36.202h-101.306z" fill="#cde2ff"/><path d="m342.969 379.291c0-9.997 8.104-18.101 18.1-18.101h-63.353v36.202h63.353c-9.996 0-18.1-8.104-18.1-18.101z" fill="#aad1f7"/><path d="m482.21 361.234c-.292-.014-.58-.044-.876-.044h-17.47v35.521c7.035-11.247 13.185-23.103 18.346-35.477z" fill="#cde2ff"/><path d="m232.874 361.19h-17.47c-9.997 0-18.101 8.104-18.101 18.101s8.104 18.101 18.101 18.101h17.47z" fill="#aad1f7"/><path d="m193.805 0h-12.242c-16.039 0-29.163 13.124-29.163 29.163h70.568c.001-16.039-13.123-29.163-29.163-29.163z" fill="#fff442"/><path d="m181.038 15.349c0-6.892 4.181-12.806 10.145-15.349h-9.618c-16.041 0-29.165 13.124-29.165 29.163h35.969c-4.424-2.999-7.331-8.067-7.331-13.814z" fill="#ffe400"/><path d="m240.169 28.083h-104.969c-13.735 0-24.972 11.237-24.972 24.972 0 13.734 11.238 24.972 24.972 24.972h104.969c13.735 0 24.972-11.238 24.972-24.972 0-13.734-11.237-24.972-24.972-24.972z" fill="#fdca00"/><path d="m170.232 53.056c0-11.576 7.57-21.462 18.002-24.973h-53.034c-13.735 0-24.972 11.237-24.972 24.972 0 13.734 11.238 24.972 24.972 24.972h53.034c-10.431-3.509-18.002-13.396-18.002-24.971z" fill="#feac00"/><path d="m222.589 121.774h-8.252c-5.954 0-11.573-2.947-15.032-7.885-.92-1.311-2.404-2.096-3.969-2.096h-15.302c-1.565 0-3.049.784-3.969 2.097-3.461 4.937-9.08 7.884-15.032 7.884h-8.252c-11.613 0-21.063-9.449-21.063-21.063v-24.843c0-4.475 3.626-8.101 8.101-8.101s8.101 3.626 8.101 8.101v24.843c0 2.635 2.226 4.861 4.861 4.861h8.252c.674 0 1.333-.366 1.764-.98 3.949-5.636 10.393-9.001 17.238-9.001h15.302c6.842 0 13.286 3.365 17.238 9.001.43.614 1.09.98 1.764.98h8.252c2.635 0 4.861-2.226 4.861-4.861v-24.843c0-4.475 3.626-8.101 8.101-8.101s8.101 3.626 8.101 8.101v24.843c-.002 11.614-9.451 21.063-21.065 21.063z" fill="#ffe400"/><path d="m464.945 394.981v-71.06c0-9.997-8.104-18.101-18.101-18.101s-18.101 8.104-18.101 18.101v110.741c0 1.839.279 3.611.788 5.283 13.476-13.52 25.375-28.609 35.414-44.964z" fill="#4e5d6d"/><path d="m285.016 472.221c9.997 0 18.101-8.104 18.101-18.101v-149.658c0-9.997-8.104-18.101-18.101-18.101s-18.101 8.104-18.101 18.101v149.658c0 9.997 8.104 18.101 18.101 18.101z" fill="#4e5d6d"/><g fill="#384051"><path d="m446.844 392.109c-9.997 0-18.101-8.104-18.101-18.101v60.654c0 1.839.278 3.611.788 5.283 13.475-13.52 25.375-28.609 35.414-44.964v-20.974c0 9.998-8.104 18.102-18.101 18.102z"/><path d="m285.016 411.567c-9.998 0-18.101-8.104-18.101-18.101v60.654c0 9.997 8.104 18.101 18.101 18.101s18.101-8.104 18.101-18.101v-60.654c0 9.998-8.104 18.101-18.101 18.101z"/><path d="m249.894 452.762c9.997 0 18.101-8.104 18.101-18.101v-110.74c0-9.997-8.104-18.101-18.101-18.101s-18.101 8.104-18.101 18.101v110.741c0 9.997 8.104 18.1 18.101 18.1z"/><path d="m429.823 439.646v-135.184c0-9.997-8.104-18.101-18.101-18.101s-18.101 8.104-18.101 18.101v149.658c0 4.73 1.829 9.022 4.799 12.246 11.21-8.021 21.714-16.965 31.403-26.72z"/></g><path d="m249.894 392.109c-9.997 0-18.1-8.104-18.1-18.101v60.654c0 9.997 8.104 18.101 18.1 18.101 9.997 0 18.101-8.104 18.101-18.101v-60.654c0 9.997-8.104 18.101-18.101 18.101z" fill="#2d3243"/><path d="m411.722 411.567c-9.997 0-18.101-8.104-18.101-18.101v60.654c0 4.73 1.829 9.022 4.799 12.246 11.21-8.022 21.713-16.966 31.403-26.721v-46.18c0 9.999-8.103 18.102-18.101 18.102z" fill="#2d3243"/><path d="m188.235 95.591h-8.201c-6.845 0-13.289 3.365-17.238 9.001-.43.614-1.089.98-1.763.98h-8.252c-2.635 0-4.861-2.226-4.861-4.861v-24.843c0-4.475-3.626-8.101-8.101-8.101s-8.101 3.626-8.101 8.101v24.843c0 11.613 9.449 21.063 21.063 21.063h8.252c5.952 0 11.571-2.947 15.032-7.884.92-1.313 2.404-2.097 3.969-2.097h8.201c-8.695-8.695 0-16.202 0-16.202z" fill="#fdca00"/></svg>